PathFileType	4	(X/Y/Z)	c:/Users/goper/Files/vsCode/490R/osim_files/C08/C08_SSWS_06.trc
DataRate	CameraRate	NumFrames	NumMarkers	Units                	OrigDataRate	OrigDataStartFrame	OrigNumFrames
250.00	250.00	8	36	mm	250.0	1374	2747
                Frame#	Time	LPSIS			LASIS			LTH1			LTH2			LTH3			LTH4			LLFE			LMFE			LSH1			LSH2			LSH3			LSH4			LLMAL			LMMAL			LCAL			LMTP5			LTOE			LMTP1			RPSIS			RASIS			RTH1			RTH2			RTH3			RTH4			RLFE			RMFE			RSH1			RSH2			RSH3			RSH4			RLMAL			RMMAL			RCAL			RMTP1			RTOE			RMTP5		
		X1	Y1	Z1	X2	Y2	Z2	X3	Y3	Z3	X4	Y4	Z4	X5	Y5	Z5	X6	Y6	Z6	X7	Y7	Z7	X8	Y8	Z8	X9	Y9	Z9	X10	Y10	Z10	X11	Y11	Z11	X12	Y12	Z12	X13	Y13	Z13	X14	Y14	Z14	X15	Y15	Z15	X16	Y16	Z16	X17	Y17	Z17	X18	Y18	Z18	X19	Y19	Z19	X20	Y20	Z20	X21	Y21	Z21	X22	Y22	Z22	X23	Y23	Z23	X24	Y24	Z24	X25	Y25	Z25	X26	Y26	Z26	X27	Y27	Z27	X28	Y28	Z28	X29	Y29	Z29	X30	Y30	Z30	X31	Y31	Z31	X32	Y32	Z32	X33	Y33	Z33	X34	Y34	Z34	X35	Y35	Z35	X36	Y36	Z36

1374	5.49200	-6.76628	1055.52649	251.23264	-217.49043	1020.22845	330.55023	-128.35118	738.65869	393.28021	-128.25546	662.24927	373.01672	-129.57240	589.62378	364.62439	-206.45634	671.16614	357.58612	-129.18781	539.78064	354.11896	-137.72893	532.25214	225.03481	-68.48328	414.29138	359.18591	-70.50848	367.18051	358.56760	-129.89635	413.96841	360.52066	-123.66550	368.11652	357.01190	-62.99829	95.76809	297.00009	-89.09241	109.00578	208.88785	-0.97703	74.63302	237.76979	-180.02502	42.83390	324.47003	-242.11000	62.76026	267.19055	-204.25531	33.47615	216.76285	-4.47053	1051.08655	191.08574	-194.51599	1022.02960	96.17478	-206.29929	755.79773	31.80470	-234.37001	682.45374	44.96349	-259.31567	606.80072	52.92629	-303.14413	709.15448	72.03668	-276.92990	544.72052	66.56199	-283.77933	537.24774	194.13304	-202.44011	501.82056	53.10634	-183.34738	461.78653	46.54888	-253.95236	468.45032	61.52542	-227.76498	432.37524	54.50240	-5.27461	219.48810	91.57188	-28.62048	203.60675	179.84299	58.41720	231.81340	161.66774	-94.51406	80.54417	163.74109	-120.85862	91.74757	110.69593	-66.98644	101.01800	52.25439
1375	5.49600	-11.33351	1055.74146	251.39716	-221.83965	1019.99622	330.89880	-131.12621	738.67627	393.40961	-130.46710	662.21625	373.08685	-131.31464	589.64685	364.64169	-208.48750	670.64288	357.24561	-130.02884	539.79120	354.14267	-139.04457	532.15845	225.09683	-69.26581	414.48093	359.13165	-71.36677	367.26291	358.31445	-130.60837	414.00296	360.60516	-123.74036	368.38495	357.33728	-63.15541	95.82568	296.80505	-89.21801	109.09369	208.83441	-1.03763	74.74997	237.66571	-180.00650	42.82040	324.45264	-242.19290	62.69107	267.18799	-204.26526	33.43438	216.73509	-9.08074	1051.37427	191.17000	-199.44913	1022.39703	96.79898	-212.46719	756.75916	31.81175	-241.17566	683.56787	45.27053	-268.94467	607.07172	55.49826	-309.51443	710.59479	73.19862	-284.42398	545.90637	67.26086	-290.58630	538.28381	194.62097	-210.30815	501.68243	53.82287	-191.78189	461.45328	47.21318	-262.24310	469.24146	62.14682	-236.61948	432.78711	55.18795	-17.96823	215.85172	91.77970	-41.61020	200.35078	179.99658	46.04690	226.71094	161.92377	-110.08998	78.70293	163.69334	-136.18236	90.54831	110.62499	-82.11987	98.87869	52.21361
1376	5.50000	-15.82550	1055.95703	251.52238	-226.19778	1019.73566	331.15988	-133.84180	738.70465	393.55612	-132.68518	662.22174	373.16904	-132.94344	589.67737	364.72916	-210.90233	670.26221	357.43625	-131.47165	539.76111	354.23499	-140.26494	532.08179	225.12505	-70.07622	414.67627	359.07910	-71.85525	367.53568	358.45963	-131.37328	414.01328	360.63803	-124.98513	368.20648	357.07224	-63.26585	95.95941	296.69168	-89.35953	109.16264	208.76430	-1.12056	74.89960	237.56837	-180.03099	42.80707	324.46051	-242.24750	62.64340	267.18011	-204.29572	33.42271	216.70305	-13.67815	1051.63330	191.29378	-204.34802	1022.67584	97.44461	-217.64183	757.55658	31.69140	-248.06534	684.60870	45.51445	-276.23233	608.34509	56.03069	-315.87027	711.90491	74.22737	-291.85544	547.07825	67.97823	-297.23712	539.24146	195.06584	-217.93127	501.61652	54.49806	-200.14087	461.05905	47.81181	-270.48233	470.03458	62.76368	-245.43329	433.18350	55.78272	-30.66375	212.24094	92.04825	-54.74512	197.03087	180.19809	33.48286	221.58531	162.18861	-125.77340	76.89420	163.62047	-151.21280	89.41032	110.64238	-97.32655	96.71517	52.18529
1377	5.50400	-20.35884	1056.13318	251.64282	-230.60884	1019.39801	331.42642	-136.58510	738.66760	393.67764	-134.82635	662.24182	373.29114	-134.62321	589.67261	364.82733	-212.93410	669.74976	357.08405	-133.10178	539.80377	354.41406	-141.59998	532.01447	225.17567	-70.77618	414.86423	359.07867	-72.49401	367.72290	358.45297	-132.15289	414.00226	360.71219	-125.58601	368.23224	357.14343	-63.38049	96.09856	296.59280	-89.50035	109.25864	208.71889	-1.18037	75.05526	237.48665	-180.03603	42.80566	324.43689	-242.31128	62.58148	267.18573	-204.29880	33.39856	216.68338	-18.30117	1051.87207	191.38014	-209.18509	1022.90363	97.98604	-225.62917	758.00348	31.91422	-254.84605	685.61743	45.77420	-283.43015	609.50146	56.55696	-322.27429	713.20331	75.16527	-299.15604	548.21558	68.65115	-303.74002	540.15338	195.50244	-225.42284	501.55298	55.17776	-208.42165	460.62091	48.37396	-278.64420	470.76083	63.33337	-254.16737	433.58722	56.45322	-43.59127	208.49330	92.25359	-67.79491	193.55602	180.19778	20.83788	216.40855	162.43556	-141.49992	75.16127	163.53554	-166.99628	88.27486	110.49361	-112.66174	94.58416	52.14260
1378	5.50800	-24.88671	1056.29102	251.72098	-234.95744	1019.07190	331.71652	-138.62254	738.90881	394.18655	-137.04890	662.20673	373.37213	-136.25995	589.68518	364.92731	-215.13298	669.25287	357.02444	-134.11739	539.73694	354.48868	-142.90837	532.00269	225.21553	-71.56490	415.04724	359.04498	-73.12215	367.91660	358.41055	-132.92035	414.01187	360.80283	-126.22604	368.25394	357.23596	-63.48985	96.23694	296.52014	-89.78320	109.35323	208.68825	-1.23421	75.21258	237.40671	-180.04359	42.76732	324.43689	-242.33931	62.50711	267.19684	-204.29541	33.37629	216.66249	-22.93318	1052.07239	191.46384	-214.01288	1023.05115	98.44783	-231.73013	758.89624	31.95164	-261.54861	686.54529	46.01962	-290.62827	610.64020	57.15129	-328.38193	714.20654	76.03702	-306.33478	549.28143	69.30427	-310.17310	541.07843	196.00206	-233.05330	501.25870	55.79558	-216.65956	460.09219	48.93405	-286.71869	471.50931	63.86152	-262.81558	433.92917	57.15153	-56.10260	204.99521	92.94081	-81.29660	190.15271	180.43622	8.02002	211.19603	162.67789	-156.59703	73.35534	162.62390	-182.63196	87.21726	110.47301	-128.08543	92.43245	52.13300
1379	5.51200	-29.40071	1056.39966	251.79385	-239.38272	1018.67230	331.98447	-141.97264	738.60895	393.94266	-139.16301	662.19617	373.46497	-137.96292	589.70532	365.01660	-217.44130	668.86548	357.28616	-135.80656	539.77197	354.61920	-144.18970	531.95648	225.27443	-72.28246	415.27509	359.00793	-73.70199	368.12619	358.39676	-133.59325	414.03857	360.91461	-126.84787	368.31137	357.34808	-63.61909	96.35382	296.42657	-89.74413	109.34943	208.51561	-0.90415	75.40336	237.30531	-180.04073	42.72913	324.43939	-242.39580	62.42898	267.21155	-203.90340	33.37675	216.59708	-27.50653	1052.22424	191.49744	-218.88138	1023.14050	98.91042	-239.25232	759.71271	32.12220	-268.23099	687.43390	46.25886	-297.62839	611.67072	57.67818	-335.38135	715.81177	77.09458	-313.46371	550.34747	69.93970	-316.61179	541.79956	196.39151	-240.49431	500.96509	56.36685	-224.89395	459.49768	49.45065	-294.64658	472.09634	64.73785	-271.52246	433.80014	56.94165	-69.77426	200.82637	92.70301	-94.82196	186.72241	180.61041	-5.01960	205.88231	162.95912	-173.62285	71.75932	163.68124	-198.20424	86.15202	110.42536	-143.60164	90.33675	52.15209
1380	5.51600	-33.90306	1056.47546	251.83257	-243.68062	1018.29535	332.28003	-144.62558	738.43359	394.19556	-141.30913	662.16443	373.60538	-139.63689	589.69592	365.13583	-219.47054	668.29413	357.01630	-137.08092	539.72473	354.72873	-145.58171	531.93073	225.38829	-73.06919	415.44901	358.99475	-74.34336	368.35126	358.39792	-134.32376	414.09482	361.04483	-127.47501	368.35486	357.42633	-63.74052	96.46500	296.36252	-89.82697	109.44876	208.49380	-1.51045	75.43096	237.28238	-180.05103	42.70829	324.44485	-242.43300	62.36192	267.22260	-204.46834	33.28986	216.65958	-32.13917	1052.33386	191.49664	-223.64047	1023.19348	99.29420	-245.51910	760.43085	32.27299	-274.87180	688.19501	46.45145	-304.66434	612.53967	58.52348	-341.43839	716.86719	78.05907	-320.45697	551.34033	70.59620	-322.90768	542.53070	196.91571	-247.91023	500.59692	56.88979	-233.05611	458.85968	49.92173	-302.60742	472.86829	64.99373	-280.14426	434.01514	57.31023	-83.01981	197.02242	92.97498	-108.39970	183.31525	180.80492	-18.15891	200.56499	163.21593	-190.12375	70.36047	163.63220	-214.05367	85.17989	110.42327	-159.21124	88.23080	52.14818
1381	5.52000	-38.42429	1056.52600	251.82407	-248.12338	1017.91101	332.51825	-147.41508	738.34149	394.30203	-143.52094	662.11511	373.71878	-141.25357	589.71521	365.24332	-221.68498	667.81335	357.03403	-138.06660	539.72833	354.82184	-146.87825	531.92847	225.48274	-73.78193	415.65039	358.98526	-75.09290	368.50314	358.17804	-135.05472	414.12662	361.12845	-128.07695	368.43524	357.56076	-63.86797	96.59948	296.29285	-89.92012	109.52974	208.46138	-1.59269	75.54125	237.22484	-180.08839	42.66743	324.46118	-242.48822	62.28875	267.25504	-204.50064	33.25682	216.66341	-36.71020	1052.44214	191.47362	-228.46164	1023.09821	99.59316	-251.84550	761.11743	32.34878	-281.40268	688.92731	46.65718	-311.23053	613.46210	59.24795	-347.58945	717.91675	78.87925	-327.24881	552.21210	71.31012	-329.14331	543.13208	197.46481	-255.20399	500.10684	57.39367	-241.14775	458.13919	50.37791	-310.44461	473.42825	65.56753	-288.72141	434.15988	57.69289	-96.30200	193.18915	93.18592	-122.11002	179.89005	181.00441	-31.47592	195.23012	163.52567	-205.99767	68.67000	163.58730	-229.81445	84.19952	110.41918	-174.82330	86.15553	52.13978
